# xmcd CD database file
#
# Track frame offsets:
#	183
#	15913
#	31355
#	46270
#	59888
#	76643
#	106575
#	120705
#	134740
#	148015
#	163060
#	176710
#
# Disc length: 2522 seconds
#
# Revision: 0
# Processed by: cddbd v1.5.1PL0 Copyright (c) Steve Scherf et al.
# Submitted via: CDex 1.51
#
DISCID=9e09d80c
DTITLE=Lionel Hampton - Collector´s JAZZ
DYEAR=1900
DGENRE=Jazz
TTITLE0=Just One Of Those Things
TTITLE1=Lazy Thoughts
TTITLE2=The Man I Love
TTITLE3=One Step From Heaven
TTITLE4=Darn That Dream
TTITLE5=Stardust
TTITLE6=Tracking Problem
TTITLE7=Lullaby Of Birdland
TTITLE8=Blues For Stephen
TTITLE9=And The Angels Sing
TTITLE10=Love Is Here To Stay
TTITLE11=I Know That You Know
EXTD=
EXTT0=
EXTT1=
EXTT2=
EXTT3=
EXTT4=
EXTT5=
EXTT6=
EXTT7=
EXTT8=
EXTT9=
EXTT10=
EXTT11=
PLAYORDER=
